<svg xmlns="http://www.w3.org/2000/svg" width="240" height="66" viewBox="0 0 240 66">
    <g fill="none" fill-rule="evenodd">
        <path fill="#5ED170" d="M28.217 0L0 15.767v32.648L17.42 59v-6.977L5.987 45.077V19.25L27.762 7.083V18.88l.045-.026 5.762 3.203v27.078h.569l5.418-3.104V25.385L45 28.411v-6.82l-11.25-6.254V3.223z"/>
        <path fill="#3DA2DD" d="M38.223 13.786l11.73 6.51v26.357L27.818 59.138l-.409-.244V46.593l-11.362-6.607v-13.38l7.147-4.127v-6.854L10 23.242v20.094l11.179 6.5.184-.065V62.202L27.734 66 56 50.055V16.867L38.223 7z"/>
        <path fill="#FFF" d="M85.403 26.468c2.288 0 4.664 1.012 6.204 2.596l-2.266 2.684c-1.012-1.232-2.508-2.002-3.872-2.002-2.442 0-4.29 1.936-4.29 4.466 0 2.574 1.848 4.532 4.29 4.532 1.298 0 2.794-.704 3.872-1.804l2.288 2.42c-1.65 1.694-4.092 2.816-6.358 2.816-4.642 0-8.096-3.41-8.096-7.92 0-4.444 3.542-7.788 8.228-7.788zM104.16 42l-2.288-4.334h-3.08V42h-3.916V26.6h6.886c4.07 0 6.402 1.936 6.402 5.368 0 2.354-.99 4.048-2.794 4.95L108.605 42h-4.444zm-5.368-7.414h2.97c1.694 0 2.684-.858 2.684-2.486 0-1.606-.99-2.42-2.684-2.42h-2.97v4.906zm21.267 2.442V42h-3.894v-4.862L110.468 26.6h3.916l3.718 6.71 3.63-6.71h3.916l-5.588 10.428zm8.485-10.428h6.71c3.938 0 6.204 1.936 6.204 5.368 0 3.608-2.266 5.698-6.204 5.698h-2.794V42h-3.916V26.6zm3.916 3.08v4.906h2.596c1.716 0 2.706-.858 2.706-2.486 0-1.606-.99-2.42-2.706-2.42h-2.596zm24.28.066H152.1V42h-3.916V29.746h-4.598v-3.168h13.156v3.168zm9.651-3.278c4.774 0 8.338 3.344 8.338 7.81 0 4.488-3.564 7.898-8.338 7.898-4.752 0-8.316-3.388-8.316-7.898 0-4.488 3.564-7.81 8.316-7.81zm.044 3.278c-2.376 0-4.356 1.958-4.356 4.554s2.002 4.598 4.356 4.598c2.376 0 4.268-2.002 4.268-4.598s-1.892-4.554-4.268-4.554zm23.093 0h-4.642V42h-3.916V29.746h-4.598v-3.168h13.156v3.168zm11.718 9.416h-6.732L193.393 42h-4.026l6.644-15.4h4.026l6.49 15.4h-4.18l-1.1-2.838zm-1.144-2.97l-2.2-5.698-2.244 5.698h4.444zm15.173-9.768c2.222 0 4.488.682 6.072 1.716l-1.474 3.058c-1.628-.946-3.674-1.606-4.928-1.606-1.012 0-1.694.374-1.694 1.122 0 2.662 8.14 1.144 8.14 6.71 0 3.08-2.728 4.708-6.16 4.708-2.574 0-5.214-.968-7.04-2.464l1.518-3.014c1.584 1.386 3.96 2.31 5.566 2.31 1.232 0 2.002-.462 2.002-1.342 0-2.728-8.14-1.1-8.14-6.556 0-2.838 2.442-4.642 6.138-4.642zM235.025 42l-4.07-6.05-2.046 2.266V42h-3.916V26.6h3.916v6.666l5.896-6.666h4.532l-5.72 6.38L239.71 42h-4.686z"/>
    </g>
</svg>
