<svg xmlns="http://www.w3.org/2000/svg" xmlns:xlink="http://www.w3.org/1999/xlink" width="32" height="35" viewBox="0 0 32 35">
    <defs>
        <path id="a" d="M.36.014H16.6v3.31H.36z"/>
        <path id="c" d="M.256.422h.708v3.325H.256z"/>
        <path id="e" d="M.188.415h.79V3.74h-.79z"/>
    </defs>
    <g fill="none" fill-rule="evenodd">
        <path fill="#E38027" d="M19.42 5.015l-6.981-.013-7.928 8.65-.906 4.004L0 27.513l2.65 7.081 10.604-3.499L23.616 34.5l4.546-.19 1.053-2.271 1.062-2.044-3.392-3.993.545-3.182-.607-3.121.355-2.875 1.204-1.936-.912-3.868 3.01-8.555z"/>
        <path fill="#F58B23" d="M26.963 25.268c-.01-.03-.016-.033-.022-.013 0 .003.02.007.022.013.013.03.02.033.023.014 0-.004-.016-.01-.023-.014m.409.542c.308.426.68.788 1.027 1.184.545.625 1.1 1.24 1.65 1.862-.372.066-.745.153-1.121.206-.435.06-.833.163-1.067.602 0 .006-.01.013-.02.02-.015.006-.038.016-.06.023-.017-.007-.036-.01-.053-.02a.62.62 0 0 0-.256-.146l-2.645-.948c-.86-.306-1.712-.612-2.568-.914l-3.595-1.27c-.181-.064-.363-.137-.548-.203-.625-.223-1.254-.442-1.88-.665-.084-.03-.165-.063-.24.023-.58.12-1.144.323-1.711.482-.772.22-1.537.446-2.302.672-.597.173-1.193.356-1.793.539-3.394.033-6.791-.08-10.182.056-.026-.116.042-.21.08-.312 1.213-3.186 2.422-6.371 3.635-9.556l.016-.057c1.99.014 3.99.077 5.984.067 0 .083.043.15.085.22.398.807.804 1.615 1.202 2.42.02.04.043.073.059.106.035.08.107.077.175.077v.12c0 .102.074.159.136.222.14.143.272.283.412.426 1.326 1.353 2.642 2.706 3.964 4.06.072.08.133.199.27.199.051-.083.003-.146-.02-.21-.256-.828-.512-1.655-.762-2.487-.035-.103-.087-.203-.052-.319.671.143 1.333.286 2.004.426.81.17 1.617.336 2.428.505.117.09.243.176.353.266.671.529 1.34 1.057 2.01 1.583.496.389.992.771 1.485 1.16l2.007 1.586c.466.372.927.755 1.403 1.117.104.08.188.216.357.216 0-.116-.078-.156-.13-.21-.272-.282-.564-.554-.85-.824-.855-.82-1.646-1.705-2.508-2.517-.75-.704-1.443-1.47-2.16-2.2a.77.77 0 0 1-.19-.3c-.101-.302-.208-.602-.309-.904-.2-.595-.402-1.19-.603-1.782-.029-.077-.022-.193-.149-.197v-.239c-.029-.093-.052-.19-.084-.286-.256-.711-.519-1.42-.771-2.131-.334-.931-.652-1.862-.986-2.793a426.618 426.618 0 0 0-1.498-4.156c-.09-.25-.133-.519-.301-.738 0-.14-.081-.243-.153-.35-.83-1.35-1.672-2.693-2.496-4.046-.168-.27-.366-.522-.49-.818.069-.003.134-.013.205-.013 2.052-.003 4.11-.003 6.166-.003.058 0 .117.01.175.013l.35 1.563c.25 1.11.506 2.22.755 3.331.02.083.03.156.11.2.007.06.01.116.017.176.006.066-.007.143.013.21.159.591.32 1.19.483 1.785.356 1.3.723 2.606 1.073 3.913.38 1.383.752 2.763 1.128 4.146.159.605.298 1.217.483 1.816.152.492.208 1.014.622 1.42.577.571 1.07 1.233 1.608 1.855.026.036.065.076.117.05.026-.034.023-.06.003-.087-.282-.455-.567-.904-.849-1.363-.237-.399-.512-.775-.703-1.207.094-.04.197-.09.291-.13.302-.14.58-.319.885-.432.081.067.11.16.12.263.02.153.055.309.091.465.143.725.282 1.457.447 2.175.068.336.094.685.22 1.007"/>
        <path fill="#80491E" d="M13.562 4.657c.124.295.321.548.487.817.823 1.354 1.67 2.697 2.5 4.047.067.106.151.21.151.349-.084.04-.132.113-.19.18-.753.84-1.492 1.689-2.247 2.52-.827.904-1.667 1.795-2.503 2.69-.648.695-1.3 1.383-1.948 2.074-.033.037-.062.08-.091.12-1.99.013-3.99-.053-5.981-.066-.5-.526-.995-1.048-1.508-1.593l1.1-.609-1.91-.957c.587-.12 1.102-.22 1.673-.343-.723-.445-1.398-.86-2.091-1.283.133-.133.298-.14.437-.196.198-.08.406-.15.613-.206.143-.047.195-.133.214-.28.036-.438.087-.877.126-1.313a2.95 2.95 0 0 1 .227-.954c.636-1.486 1.258-2.976 1.884-4.465.055-.137.126-.26.236-.366C6.395 3.26 8.041 1.694 9.695.128c.039-.04.071-.096.165-.1l.27.33c1.07 1.35 2.145 2.703 3.222 4.052.065.087.14.167.21.247"/>
        <path fill="#E27E26" d="M15.997 25.565c.071-.086.156-.053.24-.026.626.226 1.254.445 1.88.668.185.067.366.137.548.203 1.2.422 2.399.845 3.595 1.27l2.568.914 2.645.948c.094.033.185.07.256.146-.35.034-.697.07-1.047.107l-2.82.289c-.652.067-1.304.13-1.949.2-.891.09-1.786.186-2.677.272-.672.07-1.343.133-2.01.203-.928.093-1.858.19-2.792.29-.424.05-.855.062-1.274.149-.891.28-1.792.552-2.684.838-2.512.788-5.018 1.579-7.524 2.37-.246.08-.253.08-.334-.15C1.762 32 .91 29.743.054 27.485.03 27.43.02 27.37.005 27.31c3.394-.133 6.792-.02 10.186-.056.204.279.408.561.613.834.402.529.81 1.05 1.209 1.576.34.449.674.901 1.014 1.35.095.12.163.113.24-.03.15-.28.295-.562.448-.844.343-.672.68-1.35 1.044-2.012.171-.313.324-.635.499-.948.269-.475.506-.97.755-1.46.03-.056.052-.109-.016-.156"/>
        <path fill="#80491E" d="M21.338 9.923c-.007-.06-.01-.116-.017-.176.036-.02.075-.037.1-.06.772-.642 1.54-1.29 2.315-1.935.967-.805 1.946-1.606 2.918-2.407 1.112-.928 2.23-1.852 3.336-2.783.246-.21.525-.386.726-.645l-.006.006c.022.004.045.004.068.007l.016.023c-.156.576-.38 1.128-.58 1.693-.772 2.2-1.547 4.402-2.328 6.596-.075.203-.052.326.1.47.25.245.49.505.746.774-.266.263-.519.509-.797.785.37.199.716.392 1.089.601-.217.223-.418.44-.636.635-.103.1-.132.2-.11.343.052.356.088.715.133 1.07a.305.305 0 0 1-.058.253c-.328.422-.652.845-.976 1.27a16.389 16.389 0 0 1-1.037-1.097c-.882-.974-1.77-1.938-2.655-2.91-.607-.654-1.2-1.313-1.806-1.964-.172-.193-.337-.393-.541-.549"/>
        <path fill="#D9C5B7" d="M13.16 31.199c.419-.087.85-.103 1.274-.15.934-.103 1.864-.196 2.792-.289.667-.07 1.338-.133 2.01-.203.891-.086 1.786-.183 2.677-.272.645-.07 1.297-.133 1.949-.2.936-.096 1.88-.196 2.82-.29l1.047-.109c.016.01.036.017.052.023.023.024.036.047.052.07l.02 2.404c-.442.256-.883.515-1.323.768-.454.256-.921.479-1.359.771-.26.177-.492.19-.784.12-1.002-.243-2.004-.472-3.009-.708-1.458-.343-2.908-.688-4.366-1.034-.927-.22-1.855-.442-2.779-.668-.084-.024-.168-.054-.233.04-.292-.06-.56-.18-.84-.273"/>
        <path fill="#E27E26" d="M30.715 1.916c-.201.263-.477.436-.726.645-1.103.934-2.221 1.855-3.336 2.783a1153.5 1153.5 0 0 0-2.915 2.407c-.778.645-1.546 1.294-2.314 1.935-.03.024-.068.044-.1.06-.082-.04-.092-.116-.114-.2-.247-1.11-.503-2.22-.752-3.33l-.35-1.563c1.063-.28 2.13-.566 3.202-.845 2.37-.615 4.743-1.227 7.12-1.839.09-.026.184-.063.285-.053"/>
        <path fill="#E27E25" d="M21.338 9.923c.204.156.37.356.54.549.607.651 1.2 1.31 1.807 1.965.885.97 1.773 1.935 2.655 2.91.334.375.67.754 1.037 1.096-.1.978-.201 1.962-.298 2.94-.013.116-.013.239-.052.352-.152.05-.308.07-.467.06-.337-.017-.68.05-1.011.076-.503.037-1.009.097-1.514.107a655.825 655.825 0 0 0-1.128-4.146c-.35-1.307-.714-2.61-1.073-3.914-.16-.595-.321-1.19-.484-1.785-.019-.067-.006-.14-.012-.21"/>
        <g transform="translate(13.64 31.394)">
            <mask id="b" fill="#fff">
                <use xlink:href="#a"/>
            </mask>
            <path fill="#C6B5A9" d="M.36.078C.426-.015.507.015.592.038c.924.226 1.854.449 2.781.668L7.738 1.74c1.005.236 2.01.466 3.008.708.292.07.525.057.785-.12.437-.292.907-.518 1.358-.77.44-.253.882-.513 1.323-.769.382-.01.748-.103 1.121-.146.425-.047.843-.16 1.268-.163-.003.183-.12.32-.224.442-.428.519-.869 1.024-1.31 1.536-.12.133-.23.276-.346.41-.062.076-.127.142-.244.149-.275.013-.56.037-.84.06-.738.06-1.477.106-2.217.16-.499.036-1.008.096-1.517.086-.136 0-.253-.047-.37-.09C6.565 2.22 3.596 1.202.626.184.538.151.431.151.36.078" mask="url(#b)"/>
        </g>
        <path fill="#081433" d="M30.24 31.874c-.425.003-.843.117-1.268.163-.373.043-.739.136-1.118.146l-.02-2.404c.007-.033.007-.066.007-.096.013-.007.023-.013.023-.02.23-.435.629-.542 1.066-.602.373-.053.746-.14 1.119-.206.408.246.816.499 1.225.745.09.053.117.11.068.213-.33.645-.655 1.293-.979 1.935a.326.326 0 0 1-.123.126"/>
        <path fill="#D77028" d="M24.035 19.979c.506-.01 1.011-.07 1.514-.11.33-.026.674-.093 1.011-.073.16.007.315-.013.467-.06 0 .027.007.057.007.087-.023.096-.049.19-.072.289-.116.472-.227.95-.337 1.433-.022.09-.035.176-.146.183-.301-.442-.6-.885-.937-1.39a12.92 12.92 0 0 0-.074.609c-.042.505-.14 1.007-.15 1.516.189.429.464.808.701 1.203.282.462.567.911.85 1.367.019.026.022.053-.004.083-.052.03-.087-.01-.117-.047-.538-.621-1.027-1.283-1.608-1.855-.414-.406-.47-.928-.622-1.423-.181-.595-.32-1.207-.483-1.812"/>
        <path fill="#E38027" d="M26.479 21.728c.11-.007.123-.094.146-.183.11-.482.22-.961.337-1.433.023-.1.049-.193.071-.29.156.473.214.968.338 1.45.058.233.09.469.152.698.084.323.11.645.084.978-.074.864-.126 1.732-.191 2.593-.01.09-.03.18-.045.27-.127-.323-.15-.672-.22-1.008-.166-.721-.306-1.45-.448-2.174-.033-.157-.068-.313-.091-.466-.01-.103-.039-.196-.117-.263.023-.06-.003-.116-.016-.172"/>
        <g transform="translate(30.522 1.47)">
            <mask id="d" fill="#fff">
                <use xlink:href="#c"/>
            </mask>
            <path fill="#80491E" d="M.26.422c.078 0 .058.036.016.071L.256.469C.26.45.26.438.26.422" mask="url(#d)"/>
        </g>
        <g transform="translate(30.522 1.47)">
            <mask id="f" fill="#fff">
                <use xlink:href="#e"/>
            </mask>
            <path fill="#E27E26" d="M.274.424C.274.439.274.45.27.47L.188.459C.2.412.235.408.274.424" mask="url(#f)"/>
        </g>
        <path fill="#E27E25" d="M9.722 17.454c.03-.04.059-.083.088-.12.651-.69 1.303-1.38 1.951-2.074.837-.894 1.676-1.786 2.5-2.69.758-.831 1.494-1.679 2.25-2.523.055-.064.106-.14.188-.177.168.22.213.49.301.738a355.516 355.516 0 0 1 1.498 4.157c.337.93.651 1.861.988 2.792.25.712.513 1.42.769 2.132.035.096.058.193.084.286-.233-.007-.47.04-.697.053-.603.036-1.206-.003-1.809.06-.548.056-1.105-.007-1.66.056-.593.067-1.206.04-1.805.053-1.041.027-2.085.12-3.122.08-.072 0-.14.004-.178-.076-.017-.033-.04-.067-.059-.107-.399-.804-.804-1.612-1.203-2.42-.038-.07-.084-.136-.084-.22"/>
        <path fill="#D76F27" d="M15.997 25.565c.068.047.045.1.016.157-.25.489-.486.984-.755 1.46-.175.312-.328.634-.5.947-.362.662-.7 1.34-1.043 2.012-.153.282-.298.565-.448.844-.077.143-.145.15-.24.03-.34-.449-.674-.901-1.014-1.35-.399-.525-.807-1.047-1.21-1.576-.204-.273-.408-.555-.612-.834.6-.18 1.196-.363 1.793-.54.765-.225 1.527-.451 2.301-.667.564-.16 1.132-.363 1.712-.483"/>
        <path fill="#D77028" d="M11.245 20.276c1.037.04 2.084-.053 3.122-.076.6-.014 1.212.01 1.809-.057.55-.063 1.108 0 1.656-.056.603-.063 1.206-.02 1.81-.06.226-.013.463-.057.7-.05v.24c-.117.219-.117.472-.176.708-.152.668-.279 1.34-.415 2.008-.022.09-.045.173-.116.233-.033-.044-.062-.08-.088-.12-.431-.738-.856-1.476-1.284-2.211-.146-.243-.123-.21-.327-.097-.33.183-.668.366-1.002.552-.574.326-1.17.625-1.734.978-.046-.013-.097-.02-.14-.04-.71-.34-1.413-.682-2.12-1.024-.518-.253-1.037-.509-1.553-.765-.048-.02-.09-.026-.142-.043v-.12z"/>
        <path fill="#E27E26" d="M19.634 23.164c.072-.06.094-.143.117-.233.136-.668.263-1.34.415-2.004.058-.24.058-.49.175-.712.126.003.12.116.15.196l.602 1.782c.097.3.208.602.308.905a.77.77 0 0 0 .191.299c.717.731 1.41 1.496 2.16 2.201.862.811 1.65 1.696 2.509 2.517.285.27.577.539.849.821.049.057.13.097.13.213-.169-.003-.253-.136-.36-.216-.474-.366-.937-.745-1.4-1.117l-2.007-1.586c-.493-.39-.99-.775-1.485-1.16a836.26 836.26 0 0 1-2.013-1.583c-.11-.09-.234-.176-.35-.266 0-.02.006-.04.01-.057"/>
        <path fill="#E27E25" d="M11.245 20.396c.052.014.094.024.142.043.516.257 1.035.513 1.553.765.707.343 1.41.685 2.12 1.024.043.02.094.027.14.04l-.007.02c-.035.116.017.22.049.323.253.828.509 1.655.765 2.487.023.063.068.126.02.21-.137 0-.198-.124-.27-.204-1.325-1.35-2.642-2.703-3.964-4.06-.14-.142-.273-.282-.412-.425-.065-.063-.136-.12-.136-.223"/>
        <path fill="#081433" d="M15.193 22.29l.006-.02c.564-.353 1.16-.656 1.735-.982.337-.183.67-.369 1.004-.552.201-.11.179-.146.325.1.428.735.852 1.473 1.283 2.208.03.043.056.08.088.12-.003.02-.01.036-.01.056-.81-.17-1.617-.336-2.428-.505-.67-.14-1.332-.283-2.003-.426M26.479 21.728c.013.056.039.113.016.172-.308.113-.587.293-.888.433-.094.04-.195.086-.289.13.013-.51.107-1.011.15-1.517.016-.176.038-.352.074-.605.337.502.636.944.937 1.387"/>
        <path fill="#C6B5A9" d="M27.853 29.683c0 .035 0 .078-.008.114a.614.614 0 0 0-.066-.083l.074-.031"/>
        <path fill="#D77028" d="M26.963 25.268c.008.004.028.012.028.016-.004.024-.012.02-.028-.016"/>
        <path fill="#D77028" d="M26.968 25.273c-.004-.008-.027-.012-.027-.016.007-.023.015-.02.027.016"/>
    </g>
</svg>
