<?xml version="1.0" encoding="UTF-8" standalone="no"?>
<svg width="128px" height="60px" viewBox="0 0 128 60" version="1.1" xmlns="http://www.w3.org/2000/svg" xmlns:xlink="http://www.w3.org/1999/xlink">
    <!-- Generator: sketchtool 39.1 (31720) - http://www.bohemiancoding.com/sketch -->
    <title>4CB481F8-9DC3-4D2F-AD59-0267B7CD2700</title>
    <desc>Created with sketchtool.</desc>
    <defs/>
    <g id="Style-Guide" stroke="none" stroke-width="1" fill="none" fill-rule="evenodd">
        <g transform="translate(-667.000000, -7993.000000)" id="core_aplikacije_logo_color">
            <g transform="translate(667.000000, 7993.000000)">
                <g id="Group">
                    <g transform="translate(51.200000, 49.600000)" id="Shape" fill="#ffffff">
                        <path d="M6.08,7.84 L5.2,5.52 L1.84,5.52 L0.96,7.84 L0.16,7.84 L3.04,0.4 L3.92,0.4 L6.8,7.84 L6.08,7.84 L6.08,7.84 Z M4,2.32 C3.92,2.16 3.92,2 3.84,1.84 C3.76,1.68 3.76,1.52 3.68,1.44 C3.6,1.28 3.6,1.2 3.6,1.12 C3.6,1.04 3.52,0.96 3.52,0.96 C3.52,0.96 3.52,1.04 3.44,1.12 C3.44,1.2 3.36,1.28 3.36,1.44 C3.28,1.6 3.28,1.68 3.2,1.84 C3.12,2 3.12,2.16 3.04,2.32 L2.08,4.96 L4.96,4.96 L4,2.32 L4,2.32 Z"/>
                        <path d="M15.28,2.56 C15.28,2.88 15.2,3.12 15.12,3.44 C15.04,3.68 14.88,3.92 14.64,4.16 C14.4,4.4 14.16,4.56 13.84,4.64 C13.52,4.8 13.12,4.8 12.72,4.8 L10.8,4.8 L10.8,7.76 L10.08,7.76 L10.08,0.32 L12.72,0.32 C13.12,0.32 13.52,0.4 13.84,0.48 C14.16,0.56 14.4,0.72 14.64,0.96 C14.88,1.12 15.04,1.36 15.12,1.68 C15.2,1.92 15.28,2.24 15.28,2.56 L15.28,2.56 Z M14.48,2.56 C14.48,2.08 14.32,1.68 14,1.36 C13.68,1.12 13.2,0.96 12.56,0.96 L10.8,0.96 L10.8,4.24 L12.64,4.24 C12.96,4.24 13.2,4.16 13.44,4.08 C13.68,4 13.84,3.92 14,3.76 C14.16,3.6 14.24,3.44 14.32,3.2 C14.4,3.04 14.48,2.8 14.48,2.56 L14.48,2.56 Z"/>
                        <polygon points="18.96 7.84 18.96 0.4 19.68 0.4 19.68 7.2 23.36 7.2 23.36 7.84"/>
                        <polygon points="26.8 7.84 26.8 0.4 27.52 0.4 27.52 7.84"/>
                        <polygon points="36.4 7.84 33.28 4 32.48 4.8 32.48 7.84 31.76 7.84 31.76 0.4 32.48 0.4 32.48 4 36 0.4 36.88 0.4 33.76 3.52 37.36 7.84 36.4 7.84"/>
                        <path d="M45.36,7.84 L44.48,5.52 L41.12,5.52 L40.24,7.84 L39.44,7.84 L42.32,0.4 L43.2,0.4 L46.08,7.84 L45.36,7.84 L45.36,7.84 Z M43.28,2.32 C43.2,2.16 43.2,2 43.12,1.84 C43.04,1.68 43.04,1.52 42.96,1.44 C42.88,1.28 42.88,1.2 42.88,1.12 C42.88,1.04 42.8,0.96 42.8,0.96 C42.8,0.96 42.8,1.04 42.72,1.12 C42.72,1.2 42.64,1.28 42.64,1.44 C42.56,1.6 42.56,1.68 42.48,1.84 C42.4,2 42.4,2.16 42.32,2.32 L41.36,4.96 L44.24,4.96 L43.28,2.32 L43.28,2.32 Z"/>
                        <path d="M52.4,7.92 C51.84,7.92 51.28,7.84 50.88,7.6 C50.48,7.44 50.08,7.12 49.84,6.8 C49.52,6.48 49.36,6.08 49.2,5.6 C49.04,5.12 48.96,4.64 48.96,4.08 C48.96,3.52 49.04,2.96 49.2,2.48 C49.36,2 49.52,1.6 49.84,1.28 C50.16,0.96 50.48,0.72 50.88,0.48 C51.28,0.32 51.76,0.24 52.4,0.24 C52.8,0.24 53.2,0.32 53.52,0.4 C53.84,0.48 54.08,0.64 54.32,0.8 C54.56,0.96 54.72,1.12 54.88,1.36 C55.04,1.6 55.12,1.76 55.28,2 L54.64,2.24 C54.56,2.08 54.48,1.92 54.32,1.76 C54.16,1.6 54.08,1.44 53.84,1.36 C53.68,1.2 53.44,1.12 53.2,1.04 C52.96,0.96 52.72,0.96 52.4,0.96 C51.92,0.96 51.52,1.04 51.2,1.2 C50.88,1.36 50.64,1.6 50.4,1.84 C50.16,2.08 50,2.48 49.92,2.8 C49.84,3.2 49.76,3.6 49.76,4.08 C49.76,4.56 49.84,4.96 49.92,5.36 C50,5.76 50.16,6.08 50.4,6.4 C50.64,6.72 50.88,6.88 51.2,7.04 C51.52,7.2 51.92,7.28 52.4,7.28 C52.72,7.28 53.04,7.2 53.28,7.12 C53.52,7.04 53.76,6.88 53.92,6.72 C54.08,6.56 54.24,6.4 54.4,6.24 C54.56,6.08 54.64,5.84 54.72,5.68 L55.36,6 C55.2,6.24 55.12,6.48 54.88,6.72 C54.72,6.96 54.48,7.12 54.24,7.36 C54,7.52 53.68,7.68 53.44,7.76 C53.12,7.92 52.8,7.92 52.4,7.92 L52.4,7.92 Z"/>
                        <polygon points="59.04 7.84 59.04 0.4 59.76 0.4 59.76 7.84"/>
                        <path d="M65.28,7.92 C64.72,7.92 64.24,7.76 63.92,7.44 C63.6,7.12 63.36,6.64 63.2,6.08 L63.92,5.92 C64,6.16 64,6.4 64.08,6.56 C64.16,6.72 64.24,6.88 64.4,6.96 C64.48,7.04 64.64,7.12 64.8,7.2 C64.96,7.28 65.12,7.28 65.28,7.28 C65.68,7.28 66,7.12 66.24,6.88 C66.48,6.64 66.56,6.24 66.56,5.68 L66.56,0.96 L65.12,0.96 L65.12,0.32 L67.28,0.32 L67.28,5.6 C67.28,5.92 67.2,6.24 67.12,6.56 C67.04,6.8 66.88,7.04 66.72,7.28 C66.56,7.44 66.32,7.6 66.08,7.76 C65.92,7.92 65.6,7.92 65.28,7.92 L65.28,7.92 Z"/>
                        <polygon points="71.44 7.84 71.44 0.4 76.32 0.4 76.32 1.04 72.16 1.04 72.16 3.76 76 3.76 76 4.4 72.16 4.4 72.16 7.28 76.56 7.28 76.56 7.92 71.44 7.92"/>
                    </g>
                    <g transform="translate(59.200000, 18.400000)" id="Shape" fill="#ffffff">
                        <path d="M5.12,16.96 C5.12,19.52 6.24,20.24 8,20.24 C9.76,20.24 10.88,19.52 10.88,16.96 L10.88,15.44 L15.36,15.44 L15.36,16.4 C15.36,22.16 12.32,24.24 8,24.24 C3.68,24.24 0.64,22.16 0.64,16.4 L0.64,8 C0.64,2.24 3.68,0.16 8,0.16 C12.32,0.16 15.36,2.24 15.36,8 L15.36,8.08 L10.88,8.08 L10.88,7.44 C10.88,4.88 9.76,4.16 8,4.16 C6.24,4.16 5.12,4.88 5.12,7.44 L5.12,16.96 L5.12,16.96 Z"/>
                        <path d="M18.64,8 C18.64,2.24 21.68,0.16 26,0.16 C30.32,0.16 33.36,2.24 33.36,8 L33.36,16.4 C33.36,22.16 30.32,24.24 26,24.24 C21.68,24.24 18.64,22.16 18.64,16.4 L18.64,8 L18.64,8 Z M23.12,16.96 C23.12,19.52 24.24,20.24 26,20.24 C27.76,20.24 28.88,19.52 28.88,16.96 L28.88,7.44 C28.88,4.88 27.76,4.16 26,4.16 C24.24,4.16 23.12,4.88 23.12,7.44 L23.12,16.96 L23.12,16.96 Z"/>
                        <path d="M47.6,23.84 L43.68,14.32 L41.52,14.32 L41.52,23.84 L37.04,23.84 L37.04,0.4 L43.52,0.4 C48.88,0.4 51.44,2.96 51.44,7.44 C51.44,10.32 50.4,12.48 47.92,13.44 L52.32,23.84 L47.6,23.84 L47.6,23.84 Z M41.52,10.64 L43.84,10.64 C45.84,10.64 47.04,9.68 47.04,7.36 C47.04,5.12 45.84,4.08 43.84,4.08 L41.52,4.08 L41.52,10.64 L41.52,10.64 Z"/>
                        <polygon points="55.12 23.84 55.12 0.4 67.36 0.4 67.36 4.32 59.6 4.32 59.6 9.68 65.52 9.68 65.52 13.6 59.6 13.6 59.6 19.76 67.68 19.76 67.68 23.68 55.12 23.68"/>
                    </g>
                    <g id="Shape">
                        <polygon fill="#ffffff" points="44.56 41.28 43.04 57.68 27.84 51.28"/>
                        <path d="M25.76,59.84 L0.16,45.04 L0.16,15.44 L25.76,0.64 L51.36,15.44 L51.36,45.04 L25.76,59.84 L25.76,59.84 Z M42.4,39.84 L42.4,20.64 L25.76,11.04 L9.12,20.64 L9.12,39.84 L25.76,49.44 L42.4,39.84 L42.4,39.84 Z" fill="#ffffff"/>
                        <polygon fill="#ffffff" points="32.32 26.4 26.4 29.84 26.4 36.4 25.2 36.4 25.2 29.84 19.2 26.4 20 26 25.68 29.2 31.36 26"/>
                    </g>
                </g>
            </g>
        </g>
    </g>
</svg>
